<?xml version="1.0" standalone="no"?>
<!DOCTYPE svg PUBLIC "-//W3C//DTD SVG 20010904//EN"
 "http://www.w3.org/TR/2001/REC-SVG-20010904/DTD/svg10.dtd">
<svg version="1.0" xmlns="http://www.w3.org/2000/svg"
 width="610.000000pt" height="610.000000pt" viewBox="0 0 610.000000 610.000000"
 preserveAspectRatio="xMidYMid meet">
<metadata>
Created by potrace 1.14, written by Peter Selinger 2001-2017
</metadata>
<g transform="translate(0.000000,610.000000) scale(0.100000,-0.100000)"
fill="#000000" stroke="none">
<path d="M3019 5944 c-1 -23 -4 -49 -13 -90 -3 -17 -8 -47 -11 -67 -7 -51 -15
-107 -20 -137 -2 -14 -7 -43 -10 -65 -3 -22 -8 -53 -11 -70 -2 -16 -7 -46 -10
-65 -2 -19 -8 -51 -12 -70 l-8 -34 -57 83 c-31 45 -57 86 -57 89 0 4 -11 20
-24 35 -13 16 -31 38 -40 50 -14 21 -14 20 -6 -13 5 -19 12 -48 15 -65 3 -16
8 -39 10 -50 2 -11 6 -27 8 -35 2 -8 7 -33 12 -55 9 -48 13 -68 20 -97 3 -13
8 -36 11 -53 7 -38 12 -59 14 -65 1 -3 2 -8 1 -13 -1 -4 6 -23 14 -43 25 -60
146 -100 241 -80 26 5 113 46 119 56 4 7 14 55 20 95 2 11 4 20 5 20 1 0 3 7
5 15 2 8 6 29 10 45 3 17 8 39 10 50 2 11 6 29 8 40 3 11 15 67 27 125 12 58
24 108 27 113 2 4 0 7 -6 7 -6 0 -15 -9 -21 -19 -5 -11 -16 -25 -22 -33 -7 -7
-37 -50 -67 -95 -64 -99 -81 -116 -82 -82 0 13 -2 33 -4 44 -2 11 -6 38 -9 60
-3 22 -7 49 -10 60 -2 11 -7 43 -10 70 -8 62 -24 161 -31 195 -3 14 -7 43 -10
65 -9 77 -24 123 -26 79z m26 -264 c3 -25 7 -54 9 -65 1 -11 5 -38 9 -60 4
-22 9 -56 12 -75 2 -19 7 -46 10 -60 5 -27 17 -117 18 -137 1 -26 16 -12 58
55 24 37 47 69 51 70 5 2 8 8 8 14 0 5 7 16 15 24 20 20 20 7 0 -78 -8 -35
-17 -77 -20 -95 -10 -60 -23 -81 -58 -92 -62 -21 -77 -21 -77 -3 0 31 -29 62
-56 60 -23 -2 -55 -40 -54 -65 0 -13 -47 -7 -83 10 -29 14 -36 24 -42 59 -4
24 -9 48 -11 53 -2 6 -6 26 -9 45 -4 19 -10 50 -15 67 -15 60 7 44 66 -47 60
-91 73 -104 75 -72 0 9 2 26 4 37 2 11 7 43 11 70 3 28 7 52 9 55 2 3 6 28 9
55 8 58 13 98 21 140 12 71 14 81 15 95 1 28 18 -12 25 -60z m136 -553 c-7
-17 -18 -27 -31 -27 -11 0 -20 -4 -20 -9 0 -17 -109 -29 -160 -18 -45 10 -91
39 -100 63 -6 15 -9 29 -7 31 10 9 104 -23 130 -44 28 -23 37 -22 67 3 8 7 40
21 70 32 60 20 68 15 51 -31z"/>
<path d="M1896 5102 c-6 -10 -1 -158 7 -190 4 -13 9 -32 12 -42 3 -10 8 -27
10 -37 2 -10 7 -26 11 -36 6 -17 3 -18 -42 -11 -79 12 -178 9 -269 -10 -34 -7
-126 -46 -174 -73 -123 -71 -242 -181 -299 -275 -9 -16 -20 -28 -24 -28 -5 0
8 -27 29 -59 54 -84 74 -110 107 -140 16 -14 34 -31 40 -36 20 -18 71 -49 84
-51 36 -6 29 -21 -13 -28 -17 -2 -32 -5 -35 -6 -3 -1 -8 -2 -12 -1 -15 2 -124
-53 -180 -90 -69 -47 -68 -51 27 -98 68 -34 100 -44 158 -50 18 -2 2 -20 -54
-60 -92 -65 -218 -183 -289 -270 -19 -24 -45 -55 -57 -70 -36 -42 -39 -45 -50
-66 -12 -21 2 -36 62 -67 154 -81 199 -102 260 -120 38 -11 72 -23 75 -25 5
-5 -50 -53 -61 -53 -4 0 -14 -6 -21 -13 -7 -7 -35 -30 -63 -52 -59 -47 -240
-226 -275 -274 -14 -19 -33 -43 -42 -55 -10 -11 -21 -25 -26 -31 -16 -21 -110
-171 -125 -202 -17 -31 -17 -31 19 -60 19 -15 42 -34 49 -41 22 -20 167 -92
186 -92 8 0 19 -3 23 -7 3 -4 12 -8 19 -9 7 -2 23 -5 37 -9 37 -8 109 -17 155
-19 43 -2 47 -13 17 -45 -25 -28 -36 -43 -56 -74 l-18 -27 31 11 c18 6 39 23
49 38 19 31 58 74 133 150 94 94 106 104 270 224 16 12 10 11 -21 -4 -51 -26
-139 -79 -156 -94 -7 -5 -29 -23 -49 -40 -21 -16 -54 -44 -74 -62 -34 -30 -40
-32 -96 -28 -33 3 -78 7 -100 11 -22 3 -52 7 -68 9 -15 2 -32 7 -37 10 -6 4
-22 8 -36 11 -47 9 -151 64 -188 100 l-37 36 37 66 c60 107 104 170 191 271
71 82 192 196 257 241 11 8 30 22 40 32 11 10 28 20 38 24 10 3 18 9 18 14 0
11 260 170 279 170 5 0 29 11 52 25 80 47 -5 18 -141 -48 -69 -33 -137 -59
-152 -59 -68 2 -312 101 -380 155 -22 17 -22 19 0 44 9 12 31 38 47 59 17 21
64 72 106 114 71 69 101 96 169 150 14 11 31 24 37 30 7 6 50 33 95 60 46 28
81 50 78 51 -3 1 -27 2 -55 4 -78 5 -115 12 -187 36 -69 22 -74 26 -60 45 21
29 200 116 266 128 14 3 30 7 36 11 16 10 50 15 51 7 2 -11 8 -103 10 -142 0
-19 7 -64 15 -100 8 -36 17 -76 20 -89 3 -13 10 -33 15 -43 23 -43 20 -62 -16
-86 l-35 -22 15 -36 c8 -20 15 -38 15 -39 0 -2 -26 -2 -57 -2 -32 1 -69 -2
-83 -5 -49 -12 -90 -30 -90 -39 0 -5 10 -5 23 0 24 9 164 7 211 -4 27 -6 28
-5 21 22 -4 15 -8 33 -9 38 -1 6 -5 16 -9 22 -10 16 32 57 88 86 79 42 261 98
317 98 10 0 20 4 22 8 5 8 -37 7 -109 -3 -45 -6 -145 -34 -160 -46 -5 -4 -19
-10 -30 -12 -11 -3 -27 -9 -36 -12 -17 -8 -37 29 -64 124 -9 30 -20 64 -24 75
-8 21 -6 321 2 365 3 14 8 41 12 60 8 46 20 58 69 71 60 16 92 20 186 20 93 0
113 -2 180 -20 46 -13 183 -82 210 -106 8 -8 28 -25 44 -40 33 -31 45 -29 16
3 -11 12 -20 24 -20 27 0 15 -102 96 -150 119 -142 71 -261 84 -460 51 -25 -5
-53 -8 -63 -9 -17 0 -27 -20 -33 -61 -1 -11 -5 -36 -9 -55 -4 -19 -8 -48 -10
-65 -2 -16 -5 -30 -6 -30 -2 0 -6 -45 -8 -88 -1 -15 -7 -17 -34 -13 -32 5 -96
32 -144 59 -30 18 -133 123 -133 136 0 6 -4 11 -8 11 -13 0 -43 70 -36 82 20
32 100 116 154 160 47 39 187 114 230 122 14 3 36 8 50 11 98 24 258 20 380
-10 14 -3 35 -8 48 -11 29 -6 130 -44 205 -77 31 -14 57 -24 57 -22 0 18 -242
155 -273 155 -24 0 -47 35 -72 107 -28 81 -39 133 -36 183 1 25 3 26 64 24 84
-2 141 -10 217 -29 11 -3 30 -7 43 -10 28 -6 125 -43 152 -58 11 -6 54 -27 95
-48 128 -63 271 -172 423 -321 81 -80 90 -87 108 -75 10 8 16 17 12 20 -3 4
-1 7 6 7 7 0 41 28 75 63 34 34 79 76 100 92 21 17 43 35 50 40 46 43 293 205
311 205 2 0 30 12 61 26 54 25 134 52 179 60 11 2 31 6 45 9 63 14 80 17 157
19 l82 3 -5 -56 c-4 -52 -45 -202 -62 -227 -4 -6 -47 -30 -96 -54 -83 -39
-256 -144 -256 -155 0 -3 33 11 73 32 39 20 77 38 82 39 6 1 26 9 46 18 20 8
51 18 70 21 18 3 36 8 41 11 10 7 65 18 148 30 56 8 205 3 255 -9 158 -38 253
-93 366 -211 98 -102 93 -90 63 -139 -15 -23 -31 -43 -35 -45 -5 -2 -9 -9 -9
-15 0 -30 -161 -151 -216 -162 -86 -18 -82 -19 -82 22 -1 34 -4 56 -18 128 -4
22 -14 88 -19 120 -1 11 -3 23 -4 26 0 4 -11 7 -23 7 -13 0 -39 2 -58 6 -262
47 -443 3 -585 -140 -95 -95 -118 -142 -29 -57 88 83 210 144 318 159 44 6
186 6 226 0 80 -13 135 -38 137 -62 0 -10 3 -35 6 -54 24 -140 26 -316 4 -410
-2 -8 -7 -31 -11 -50 -4 -19 -14 -45 -22 -57 -8 -13 -12 -23 -9 -23 3 0 -1
-13 -9 -29 l-15 -29 -83 29 c-46 16 -84 29 -85 30 -2 1 -12 3 -23 4 -11 1 -21
4 -22 5 -4 4 -33 7 -97 13 -30 2 -48 1 -40 -3 15 -8 97 -24 101 -19 2 1 13 -3
24 -9 12 -6 36 -14 54 -17 29 -5 88 -29 168 -68 34 -16 84 -66 77 -77 -4 -6 0
-10 8 -10 7 0 19 11 25 24 10 23 8 27 -26 47 -20 12 -38 23 -40 24 -1 1 7 28
19 61 20 58 24 70 34 117 10 45 16 94 22 177 3 47 6 86 8 88 1 1 45 -11 96
-27 92 -30 200 -82 249 -120 l25 -20 -45 -20 c-25 -11 -58 -22 -75 -25 -78
-15 -104 -19 -152 -20 -29 0 -53 -4 -53 -8 0 -5 5 -8 11 -8 7 0 64 -35 128
-77 83 -56 150 -112 236 -198 66 -66 129 -133 140 -149 11 -15 26 -35 34 -43
7 -7 12 -15 10 -17 -41 -35 -154 -93 -229 -118 -36 -12 -70 -25 -75 -29 -6 -4
-33 -11 -60 -14 -28 -4 -51 -8 -53 -10 -2 -2 -40 15 -85 38 -45 23 -98 48
-117 55 -19 7 -43 18 -52 23 -22 11 -31 12 -24 0 4 -5 52 -34 109 -64 105 -55
199 -115 205 -129 2 -4 9 -8 15 -8 7 0 24 -11 39 -25 15 -14 31 -25 35 -25 5
0 16 -8 25 -17 9 -10 33 -31 54 -48 44 -35 210 -202 239 -239 11 -15 25 -32
31 -39 24 -28 98 -145 125 -200 l30 -58 -39 -37 c-54 -50 -132 -88 -221 -107
-12 -3 -31 -7 -43 -10 -13 -3 -43 -8 -68 -11 -155 -17 -156 -17 -219 44 -62
60 -173 138 -258 181 -54 27 -68 27 -25 1 19 -11 43 -29 55 -40 11 -11 26 -20
32 -20 6 0 18 -8 27 -17 9 -10 29 -27 44 -38 30 -22 204 -194 246 -243 16 -18
28 -37 28 -42 0 -12 41 -30 53 -23 9 5 -4 30 -30 58 -24 25 -53 67 -53 76 0 4
17 6 38 6 99 -1 232 32 322 80 71 38 169 107 175 122 8 20 -135 250 -198 316
-6 7 -25 30 -42 51 -35 43 -147 155 -200 199 -35 30 -81 67 -100 83 -5 4 -24
17 -42 27 -37 21 -50 45 -26 45 22 0 143 44 205 76 70 35 188 105 188 111 0 7
-63 93 -98 134 -34 40 -211 217 -244 244 -13 11 -47 36 -76 55 -53 36 -63 49
-37 51 62 5 220 71 229 95 12 30 -165 131 -263 150 -44 9 -43 16 6 44 71 41
127 97 184 185 48 75 50 81 31 103 -9 11 -26 33 -37 48 -45 61 -147 154 -226
206 -69 45 -175 95 -224 104 -97 20 -172 22 -262 10 l-52 -7 19 57 c11 31 23
84 26 118 17 162 20 157 -104 151 -53 -2 -108 -7 -122 -10 -14 -3 -43 -8 -65
-11 -22 -4 -60 -13 -84 -21 -24 -8 -51 -16 -60 -18 -19 -4 -71 -25 -161 -67
-63 -28 -198 -112 -248 -153 -78 -64 -227 -220 -274 -289 -5 -7 -17 0 -33 19
-14 17 -40 47 -58 68 -54 65 -129 140 -182 182 -27 21 -52 42 -55 45 -7 7 -84
57 -144 93 -52 30 -250 113 -289 121 -12 3 -44 9 -72 15 -90 19 -109 22 -207
26 -53 3 -99 1 -102 -3z"/>
<path d="M1984 4987 c12 -80 42 -146 65 -148 9 -1 43 -3 76 -5 33 -1 76 -5 95
-7 72 -10 115 -18 130 -23 8 -3 26 -8 39 -10 71 -14 291 -117 277 -131 -3 -3
-13 -2 -23 2 -10 5 -20 9 -23 10 -3 1 -23 9 -45 19 -56 25 -115 46 -115 41 0
-3 -12 0 -27 6 -27 10 -41 14 -93 24 -14 3 -36 7 -50 10 -40 9 -82 16 -125 20
-22 2 -49 6 -60 10 -11 3 21 -15 71 -42 134 -71 224 -143 316 -252 28 -33 89
-116 103 -140 10 -17 13 -18 -110 63 -49 33 -135 84 -191 113 -104 55 -308
128 -331 119 -7 -3 -13 -2 -13 2 0 18 -231 24 -287 7 -24 -7 -43 -12 -43 -10
0 11 -157 -59 -205 -92 -91 -62 -185 -156 -185 -186 0 -9 129 -138 155 -154
76 -48 129 -67 131 -48 0 9 16 101 19 115 3 16 16 89 20 115 2 17 6 39 8 50 2
12 23 31 53 46 41 22 52 25 69 14 11 -7 31 -10 45 -7 36 7 220 6 253 -1 127
-27 227 -85 333 -196 29 -29 58 -51 66 -49 15 5 103 -24 162 -54 41 -21 136
-110 136 -128 0 -5 5 -10 12 -10 6 0 9 3 5 6 -3 3 1 23 8 45 8 21 12 39 10 39
-6 0 20 71 50 134 14 31 30 56 33 56 4 0 18 -36 31 -80 13 -44 36 -106 52
-137 l28 -58 1 43 c0 23 3 42 8 42 4 0 25 -27 47 -60 22 -33 45 -60 50 -60 6
0 18 13 27 28 30 50 110 126 157 149 l46 23 10 -39 10 -38 40 14 c57 21 283
22 311 1 7 -5 23 10 44 40 99 140 259 256 395 285 82 18 282 12 315 -8 6 -3
10 -1 10 4 0 6 -4 11 -10 11 -5 0 -10 4 -10 9 0 6 9 8 20 6 30 -6 110 -43 111
-52 1 -4 3 -19 4 -33 5 -43 14 -104 20 -130 5 -22 10 -55 19 -115 2 -11 4 -23
5 -27 3 -17 113 36 160 77 79 68 144 145 122 145 -6 0 -11 5 -11 10 0 11 -44
64 -74 89 -10 9 -26 23 -35 31 -28 25 -93 65 -156 95 -57 27 -88 36 -165 52
-44 9 -203 9 -250 0 -54 -10 -80 -16 -100 -22 -10 -3 -28 -8 -41 -10 -24 -5
-137 -51 -209 -86 -46 -22 -211 -119 -220 -130 -8 -9 -100 -70 -100 -66 0 12
34 68 55 91 14 15 25 30 25 33 0 8 171 174 196 190 11 7 37 25 59 39 57 38
126 74 141 74 8 0 14 5 14 11 0 5 -4 8 -8 5 -5 -3 -31 -8 -58 -11 -69 -8 -99
-13 -99 -15 0 -1 -9 -3 -20 -4 -41 -5 -100 -18 -110 -24 -5 -3 -16 -7 -25 -8
-21 -2 -189 -63 -224 -81 -22 -11 -27 -12 -24 -2 9 27 234 125 328 144 86 17
151 26 225 30 33 1 66 3 72 4 15 1 48 63 57 106 18 85 23 78 -52 72 -70 -6
-101 -11 -167 -29 -22 -5 -41 -10 -42 -9 -2 0 -23 -8 -48 -19 -25 -11 -45 -17
-45 -15 0 14 -288 -144 -326 -178 -23 -21 -39 -33 -79 -63 -62 -45 -82 -63
-182 -162 l-94 -94 -53 54 c-61 60 -167 156 -211 189 -16 13 -32 26 -35 30 -3
4 -61 43 -128 87 -137 90 -310 169 -408 187 -16 2 -40 7 -54 10 -14 3 -56 7
-93 10 l-69 4 6 -32z m-194 -357 c0 -6 -8 -10 -17 -11 -10 0 -25 -2 -33 -4 -8
-2 -33 -6 -55 -10 -106 -18 -248 -91 -329 -170 -26 -26 -52 -45 -57 -43 -18 6
97 111 169 154 68 42 153 75 206 81 16 2 31 5 33 6 8 9 83 6 83 -3z m2625 -10
c108 -28 216 -90 299 -172 59 -59 53 -78 -7 -22 -100 95 -231 163 -350 180
-21 3 -46 7 -55 9 -9 2 -20 4 -24 4 -5 1 -8 5 -8 10 0 12 81 7 145 -9z m-3033
-234 c-23 -25 -44 -41 -48 -35 -6 11 74 94 83 85 3 -3 -13 -26 -35 -50z m3294
26 c-3 -2 4 -13 15 -25 10 -11 19 -28 19 -36 -1 -10 -11 -4 -30 19 -34 39 -36
47 -15 47 8 0 13 -2 11 -5z"/>
<path d="M2337 4569 c7 -7 15 -10 18 -7 3 3 -2 9 -12 12 -14 6 -15 5 -6 -5z"/>
<path d="M1666 4512 c-3 -5 1 -9 9 -9 8 0 15 4 15 9 0 4 -4 8 -9 8 -6 0 -12
-4 -15 -8z"/>
<path d="M1779 4356 c-2 -2 -24 -6 -49 -9 -64 -8 -85 -18 -88 -47 -2 -14 -5
-36 -7 -50 -16 -94 -19 -190 -10 -280 6 -61 7 -65 34 -142 l24 -66 36 15 c20
9 45 20 56 24 11 5 31 11 45 13 14 3 25 5 25 6 0 7 234 5 248 -2 9 -5 17 -5
17 0 0 9 -163 63 -210 70 -14 2 -44 4 -67 5 -28 1 -43 6 -43 14 0 7 4 13 8 13
5 0 22 11 38 25 16 14 63 42 104 63 67 34 81 37 155 37 62 -1 87 -5 110 -20
28 -18 29 -18 15 -1 -8 10 -38 32 -67 48 -40 22 -51 33 -43 43 14 16 137 16
178 -1 17 -7 32 -12 32 -10 0 4 -114 117 -132 131 -56 44 -159 90 -250 110
-35 8 -153 16 -159 11z"/>
<path d="M4168 4355 c-3 -3 -75 -17 -97 -18 -19 -1 -190 -88 -220 -112 -38
-31 -111 -108 -107 -112 2 -3 23 1 46 7 59 16 112 15 145 -3 l29 -14 -45 -21
c-24 -11 -57 -32 -74 -47 l-30 -27 36 20 c28 15 53 19 115 18 69 -2 88 -6 154
-39 68 -33 147 -93 137 -103 -2 -2 -23 -6 -48 -9 -52 -6 -100 -14 -109 -20 -4
-2 -21 -7 -38 -10 -17 -3 -55 -16 -84 -30 -29 -14 -42 -22 -28 -18 31 9 226 8
263 0 15 -4 38 -9 51 -12 13 -3 40 -12 59 -20 20 -8 39 -15 42 -15 8 0 43 84
50 118 16 76 22 144 18 212 -2 41 -4 82 -4 90 0 8 -6 40 -12 70 -6 30 -10 58
-9 62 1 3 -13 10 -31 14 -17 4 -39 9 -47 11 -22 5 -157 12 -162 8z"/>
<path d="M2770 4235 c-6 -16 -15 -41 -20 -55 -5 -14 -12 -41 -16 -60 -4 -19
-9 -39 -10 -45 -4 -12 -12 -52 -19 -84 -2 -13 -6 -25 -8 -27 -2 -2 -16 23 -31
56 -44 96 -133 170 -222 186 -15 3 -31 7 -36 10 -5 3 5 -16 21 -43 44 -71 97
-187 135 -294 l34 -94 68 -1 c78 -2 127 -10 157 -25 21 -12 41 5 33 27 -2 6
-1 16 4 23 6 10 16 8 48 -7 68 -33 122 -85 184 -176 l26 -37 52 52 c48 48 53
50 48 27 -19 -99 68 18 116 157 6 16 11 11 35 -32 16 -28 32 -68 35 -88 8 -40
14 -41 21 -6 2 13 7 32 10 44 9 32 95 248 108 272 33 60 57 118 52 123 -6 6
-10 7 -80 19 -80 14 -152 6 -233 -26 l-50 -20 -6 35 c-4 18 -9 34 -12 34 -7 0
-59 -36 -87 -60 -10 -8 -32 -36 -49 -63 l-30 -47 26 -21 c15 -12 25 -23 22
-26 -7 -8 -99 36 -123 59 -13 12 -23 20 -24 17 -1 -2 -2 -17 -4 -34 -1 -16 -3
-31 -4 -33 -2 -7 -28 25 -62 78 -49 76 -48 72 -74 148 l-24 67 -11 -30z"/>
<path d="M2180 4083 c44 -31 69 -55 96 -95 33 -46 26 -58 -16 -28 -50 36 -129
59 -188 55 -73 -5 -209 -71 -188 -92 5 -6 47 -12 104 -16 12 0 22 -5 22 -11 0
-5 3 -7 6 -3 8 8 93 -23 179 -65 l40 -20 -25 21 c-38 32 -161 90 -206 97 -51
8 -60 18 -32 36 86 55 232 33 320 -50 15 -14 31 -23 34 -19 6 6 -19 79 -43
126 -18 37 -6 43 40 19 40 -20 57 -35 85 -75 7 -10 11 -13 8 -7 -3 6 -7 23
-10 38 -3 16 -6 29 -8 30 -77 53 -111 66 -188 72 -55 4 -55 4 -30 -13z"/>
<path d="M3790 4093 c-42 -11 -140 -68 -136 -79 3 -7 2 -15 -2 -18 -3 -4 -7
-17 -8 -29 -3 -20 -2 -20 9 3 15 33 27 44 64 64 32 16 63 21 63 11 0 -4 -8
-20 -17 -38 -9 -18 -18 -34 -18 -37 -1 -3 -7 -23 -13 -44 -14 -50 -10 -55 21
-22 13 14 28 26 32 26 4 0 13 6 19 14 17 21 116 52 161 50 45 -1 150 -43 138
-55 -4 -4 -24 -9 -43 -12 -54 -7 -163 -54 -209 -89 -31 -23 -20 -23 27 1 20
10 57 25 82 32 25 7 50 16 55 20 11 8 70 19 123 24 18 2 35 5 38 8 8 8 -81 66
-123 81 -61 21 -150 14 -211 -17 -29 -15 -60 -34 -69 -42 -8 -9 -17 -14 -20
-12 -6 7 30 77 39 77 5 0 6 5 3 10 -3 6 0 10 9 10 8 0 16 4 18 9 2 5 20 20 40
34 l38 25 -48 -1 c-26 0 -54 -2 -62 -4z"/>
<path d="M4530 4045 c0 -32 16 -47 53 -50 4 0 8 -4 10 -10 1 -5 -13 -11 -30
-13 -20 -2 -34 -9 -34 -18 -5 -55 -17 -50 101 -44 50 3 161 27 172 39 8 7
-155 89 -230 115 l-42 15 0 -34z"/>
<path d="M1460 4051 c-60 -19 -163 -65 -193 -86 -19 -13 -18 -14 2 -25 25 -13
60 -19 146 -27 116 -10 110 -11 111 20 1 32 -8 40 -48 39 -24 -1 -27 2 -18 14
7 7 16 12 20 9 16 -10 42 22 38 47 l-3 26 -55 -17z"/>
<path d="M2425 4037 c3 -11 8 -31 11 -45 3 -15 8 -34 11 -42 3 -8 7 -22 8 -30
2 -8 6 -25 9 -38 4 -18 -1 -25 -29 -37 -172 -71 -349 -306 -441 -585 -19 -59
-20 -62 -28 -100 -3 -14 -8 -36 -12 -50 -21 -95 -22 -224 -1 -330 10 -53 35
-51 30 3 -7 62 -6 217 1 257 3 19 8 51 10 70 15 115 54 230 122 360 48 93 79
133 167 221 50 51 185 144 194 135 2 -2 5 -12 7 -23 3 -15 -8 -26 -47 -46 -73
-38 -84 -46 -141 -103 -81 -80 -97 -102 -155 -214 -47 -93 -88 -195 -96 -240
-3 -19 -9 -44 -12 -55 -12 -40 -15 -72 -19 -205 -4 -161 2 -196 37 -194 35 2
86 11 97 18 4 3 19 7 33 10 13 3 35 8 49 12 l25 8 -19 -30 c-11 -16 -25 -33
-33 -37 -30 -18 -10 -23 40 -10 96 26 137 34 200 38 48 3 78 25 92 68 4 9 11
17 16 17 5 0 9 5 9 10 0 17 60 94 62 79 5 -46 6 -71 8 -129 4 -115 5 -111 -32
-96 -30 13 -58 13 -230 6 -10 -1 -18 -6 -18 -11 0 -6 -5 -7 -10 -4 -11 7 -80
-11 -178 -46 -77 -28 -90 -23 -54 17 42 48 56 67 45 60 -22 -13 -56 -18 -136
-21 -67 -2 -86 1 -129 23 -29 14 -62 42 -80 66 -23 31 -29 35 -23 16 19 -67
48 -108 97 -136 27 -16 52 -29 56 -30 33 -2 70 -18 67 -27 -2 -7 -6 -29 -9
-49 l-6 -37 36 15 c20 8 44 19 53 24 9 6 65 26 124 45 138 45 238 57 330 41
41 -6 96 -32 98 -44 0 -4 2 -31 3 -60 2 -52 -6 -73 -19 -52 -4 6 -10 8 -15 5
-5 -3 -17 -2 -27 3 -40 21 -111 30 -212 27 -105 -3 -140 -8 -191 -28 -8 -3
-33 -11 -55 -17 -104 -31 -217 -114 -253 -187 -23 -46 -47 -116 -41 -123 12
-14 30 -5 35 18 13 51 47 107 94 153 47 46 166 112 225 124 17 3 44 9 60 12
35 8 222 8 280 1 22 -2 49 -9 59 -15 18 -10 18 -11 0 -29 -32 -32 -64 -81 -57
-88 3 -3 14 -6 23 -6 9 0 24 -6 34 -13 16 -12 -3 -25 -169 -120 -170 -98 -191
-107 -224 -101 -38 6 -51 8 -171 20 -137 15 -432 9 -580 -11 -19 -2 -53 -7
-75 -10 -42 -5 -64 -8 -129 -20 -60 -10 -76 -14 -94 -19 -9 -3 -28 -7 -42 -10
-26 -5 -57 -13 -88 -21 -9 -2 -53 -14 -97 -26 -44 -12 -84 -25 -90 -29 -5 -4
-31 -13 -58 -20 -26 -7 -49 -16 -51 -19 -2 -3 1 -20 5 -37 l9 -31 97 34 c54
18 148 47 208 63 108 28 136 34 205 46 19 3 38 8 41 10 4 2 24 6 45 9 22 3 50
7 64 10 14 3 48 8 75 10 28 3 66 7 85 10 129 14 207 18 375 19 105 1 205 -1
223 -3 32 -3 32 -4 16 -22 -9 -11 -21 -19 -26 -19 -5 0 -50 -25 -100 -55 -50
-30 -92 -55 -94 -55 -2 0 -28 -16 -58 -35 -30 -19 -58 -35 -61 -35 -6 0 2 129
10 167 5 23 -5 36 -20 25 -13 -9 -16 -24 -21 -97 -7 -110 -11 -125 -38 -148
l-27 -23 45 -90 c25 -49 57 -102 71 -119 64 -74 102 -109 159 -148 18 -13 18
-15 -4 -58 -23 -44 -159 -189 -178 -189 -6 0 -4 15 4 38 16 46 18 76 3 50 -5
-10 -11 -21 -12 -25 -1 -4 -13 -19 -26 -33 -13 -14 -27 -35 -31 -47 -5 -11
-49 -49 -99 -83 -49 -33 -101 -73 -116 -88 -21 -21 -28 -23 -35 -12 -9 15 -7
168 4 210 27 112 105 240 200 331 11 11 16 19 10 19 -5 -1 -36 -26 -69 -57
-144 -134 -347 -228 -460 -213 -47 6 -55 27 -31 85 9 20 13 41 10 46 -3 5 -2
9 3 9 4 0 13 10 18 23 21 44 80 152 92 167 6 8 33 44 60 80 65 87 86 112 166
192 37 37 67 70 67 73 0 5 -50 -24 -60 -35 -48 -53 -282 -181 -360 -197 -53
-10 -154 -7 -177 6 -20 10 -20 13 -7 51 8 23 28 68 44 100 17 33 30 62 30 65
0 12 -28 4 -43 -13 -25 -27 -97 -199 -91 -216 5 -13 19 -18 94 -34 82 -18 186
4 294 62 27 14 51 24 54 22 5 -5 -38 -69 -50 -74 -4 -2 -8 -10 -8 -19 0 -8 -9
-22 -20 -31 -30 -26 -210 -385 -197 -393 31 -18 212 -11 242 10 6 4 28 13 50
20 22 8 64 29 93 47 29 19 56 34 61 34 5 0 -2 -27 -16 -61 -28 -70 -34 -91
-39 -139 -6 -60 -4 -180 5 -269 0 -9 11 -1 25 18 13 18 37 42 54 54 16 12 35
29 44 37 8 8 77 53 153 100 154 95 214 149 265 238 34 59 60 77 76 51 5 -8 10
-6 16 5 6 10 8 19 6 20 -1 2 -31 18 -65 36 -98 51 -206 166 -263 279 l-22 45
28 23 c26 21 542 332 624 377 19 10 75 43 124 72 49 30 94 54 100 54 19 0 135
-131 191 -214 53 -80 175 -304 175 -322 0 -5 -15 -10 -34 -11 -69 -4 -183 -57
-252 -118 -7 -5 -29 -23 -49 -40 -20 -16 -49 -41 -64 -55 -117 -106 -206 -151
-308 -155 -76 -3 -123 -22 -86 -36 20 -7 146 -5 180 4 13 3 45 17 73 31 27 14
50 24 51 23 0 -1 2 -15 4 -32 2 -16 7 -48 10 -70 13 -96 16 -131 16 -154 -1
-17 2 -21 12 -14 6 5 31 24 55 42 24 19 45 31 47 29 3 -2 7 -27 9 -54 3 -27 8
-59 11 -71 3 -13 7 -31 9 -40 5 -18 38 -113 51 -145 7 -18 9 -16 75 65 52 64
56 65 65 15 15 -74 137 -281 161 -271 8 3 14 10 14 16 0 6 6 18 14 26 23 25
87 150 111 214 l22 59 24 -30 c13 -16 37 -45 53 -65 15 -21 32 -37 36 -37 6 0
39 75 47 108 9 39 12 47 14 47 1 0 3 9 5 20 1 11 5 32 8 46 3 14 7 39 9 55 4
37 12 43 34 24 32 -27 75 -52 80 -47 2 3 6 22 8 44 2 21 6 61 10 88 4 28 9 63
10 78 4 48 18 52 82 21 46 -22 75 -28 139 -30 88 -3 123 8 89 28 -11 6 -44 12
-75 13 -30 1 -73 6 -95 13 -41 12 -150 78 -193 116 -59 52 -83 73 -117 101
-20 17 -42 35 -49 40 -54 45 -164 92 -236 100 -14 2 -26 3 -28 4 -10 4 165
319 195 349 7 8 18 23 24 34 20 38 133 158 148 158 9 0 498 -285 681 -396 211
-129 201 -119 178 -171 -50 -113 -218 -278 -323 -317 -19 -7 -19 -8 -2 -17 9
-6 26 -8 36 -4 15 4 25 -6 51 -52 44 -79 131 -163 225 -217 123 -71 224 -143
272 -194 l52 -54 2 58 c7 225 -2 301 -49 388 -12 22 -20 42 -17 44 2 2 23 -9
47 -26 57 -39 139 -80 174 -87 16 -3 45 -8 64 -12 19 -4 55 -6 80 -5 25 1 53
2 62 3 10 0 20 4 22 8 14 22 -104 265 -199 407 -36 54 -63 99 -61 102 2 2 32
-10 66 -27 34 -17 76 -34 94 -36 17 -3 45 -9 61 -14 51 -14 122 -5 188 23 l37
15 -34 73 c-59 129 -69 147 -84 153 -8 3 -17 3 -20 0 -6 -6 29 -85 38 -85 4 0
7 -6 8 -12 0 -7 7 -34 16 -60 14 -46 14 -48 -6 -59 -22 -12 -113 -15 -163 -6
-34 6 -103 31 -155 55 -32 15 -169 99 -180 112 -11 11 -96 77 -110 85 -8 4 24
-32 71 -81 47 -49 99 -106 116 -126 17 -20 34 -35 37 -32 3 2 4 1 1 -3 -4 -5
15 -35 57 -88 67 -84 183 -333 164 -352 -14 -15 -78 -18 -132 -7 -112 22 -304
127 -362 196 -24 28 -82 74 -82 64 0 -3 17 -23 38 -45 20 -21 47 -52 60 -68
32 -41 115 -210 108 -222 -4 -5 -2 -12 2 -15 5 -3 10 -20 11 -38 5 -96 6 -148
1 -168 -5 -23 -6 -23 -36 8 -34 34 -189 142 -204 142 -6 0 -10 6 -10 14 0 14
-60 108 -87 136 -9 10 -7 -2 6 -33 38 -89 27 -89 -67 2 -40 38 -72 71 -72 74
0 4 -11 22 -24 42 -29 42 -26 55 13 78 35 20 141 122 141 135 0 5 10 20 23 34
13 14 39 60 57 102 29 66 32 79 20 87 -8 4 -20 12 -27 16 -6 5 -14 42 -18 83
-12 142 -16 160 -36 160 -8 0 -6 -86 5 -163 5 -40 -8 -42 -56 -9 -24 16 -59
38 -78 48 -97 53 -220 129 -220 136 0 4 17 9 38 9 110 3 397 0 462 -5 148 -12
181 -15 198 -20 9 -3 38 -8 64 -11 50 -5 108 -14 142 -21 11 -2 36 -7 55 -10
19 -3 45 -10 58 -15 13 -5 23 -7 23 -4 0 2 18 -2 40 -10 22 -8 42 -14 45 -14
15 -1 65 -15 98 -27 20 -8 37 -12 37 -9 0 5 136 -41 162 -55 13 -7 19 -3 27
22 6 18 8 35 4 39 -8 7 -168 61 -178 60 -3 0 -29 8 -57 18 -29 11 -70 22 -92
25 -21 4 -42 8 -46 11 -3 2 -20 7 -36 10 -36 6 -72 13 -104 20 -14 3 -43 8
-65 10 -22 3 -51 7 -65 10 -157 34 -549 39 -755 10 -115 -16 -126 -14 -235 56
-14 9 -45 27 -70 41 -186 104 -197 113 -140 125 19 3 30 12 30 22 0 20 -27 61
-53 80 -17 12 -18 15 -4 23 27 15 97 22 212 22 110 -1 124 -2 202 -23 125 -34
251 -123 283 -201 7 -16 17 -30 22 -30 5 0 7 -4 3 -9 -8 -14 17 -62 29 -58 6
3 10 9 9 14 -1 6 -4 21 -7 35 -2 13 -19 52 -37 85 -25 47 -46 70 -93 101 -67
45 -164 91 -205 98 -14 3 -33 7 -41 10 -37 14 -82 19 -180 18 -107 0 -135 -4
-157 -17 -7 -5 -13 -6 -13 -3 0 3 -18 -1 -40 -9 l-40 -14 0 63 0 64 43 17 c23
10 53 19 67 22 62 10 179 2 240 -17 19 -6 46 -13 60 -16 19 -4 140 -52 228
-91 9 -4 10 1 2 21 -5 14 -7 26 -5 26 2 0 0 11 -5 24 -8 22 -6 25 37 35 102
26 152 70 181 161 9 28 9 31 -1 16 -53 -83 -122 -115 -238 -111 -42 1 -85 6
-97 9 -31 10 -27 -4 12 -46 19 -20 32 -38 30 -41 -3 -2 -53 11 -112 30 -146
47 -171 52 -287 58 -51 2 -94 -1 -118 -10 l-37 -13 5 121 c3 67 7 122 9 124 3
3 77 -103 85 -122 14 -32 51 -57 92 -60 55 -5 111 -15 167 -30 9 -2 34 -9 55
-14 l38 -9 -18 21 c-10 12 -24 26 -30 30 -16 10 -17 37 -3 37 6 0 25 -6 43
-13 31 -13 82 -25 139 -32 29 -4 33 3 38 60 8 96 -3 315 -17 337 -2 5 -6 17
-9 28 -10 47 -14 59 -39 130 -82 226 -194 372 -345 452 -40 21 -60 37 -60 50
0 27 25 22 88 -18 58 -37 98 -70 136 -113 11 -12 31 -34 43 -47 36 -39 78
-105 117 -181 20 -40 36 -75 37 -78 0 -2 6 -20 14 -39 8 -18 17 -48 20 -67 3
-18 8 -36 11 -41 26 -42 49 -354 33 -448 -4 -27 22 -37 27 -10 20 91 23 123
20 198 -5 94 -10 133 -25 187 -5 19 -7 35 -5 35 3 0 0 8 -5 19 -6 10 -13 32
-15 48 -15 81 -153 344 -223 422 -79 89 -110 114 -190 157 -38 20 -66 41 -65
48 4 12 6 19 20 76 5 19 10 38 11 42 1 4 4 15 8 23 3 9 3 18 1 21 -10 10 -112
-238 -121 -293 -1 -10 -6 -24 -10 -30 -5 -7 -6 -13 -3 -13 2 0 0 -15 -5 -32
-6 -18 -12 -42 -14 -53 -13 -58 -35 -175 -40 -210 -3 -22 -7 -51 -10 -65 -5
-33 -16 -113 -21 -170 -3 -25 -7 -65 -9 -90 -3 -25 -7 -72 -9 -105 -3 -33 -7
-85 -11 -115 -5 -45 -9 -137 -15 -356 0 -11 -659 -16 -661 -5 -2 9 -7 103 -13
226 -9 196 -15 268 -32 395 -2 19 -6 53 -8 75 -4 55 -17 154 -22 179 -4 20
-13 68 -19 111 -6 34 -23 120 -31 150 -2 6 -5 20 -8 33 -3 12 -9 32 -12 45 -7
28 -10 39 -16 57 -3 8 -18 51 -33 95 -23 68 -97 224 -80 172z m74 -629 c19
-33 0 -84 -34 -92 -88 -22 -121 98 -35 126 24 8 54 -7 69 -34z m1165 -3 c19
-51 -18 -100 -69 -91 -71 14 -75 105 -5 128 20 7 66 -17 74 -37z m-1143 -175
c10 -6 29 -30 41 -53 31 -57 33 -201 4 -265 -37 -83 -108 -91 -150 -18 -87
150 -10 397 105 336z m1079 -6 c44 -26 63 -77 66 -174 4 -97 -14 -151 -62
-189 -97 -76 -186 119 -130 286 17 52 54 93 83 93 8 0 27 -7 43 -16z m-157
-797 c34 -22 34 -35 2 -43 -14 -3 -23 -9 -20 -13 2 -4 -2 -8 -10 -8 -18 0 -20
24 -2 30 6 2 8 8 4 13 -11 11 -757 12 -764 1 -3 -5 0 -14 6 -20 22 -22 10 -26
-24 -10 -41 20 -43 26 -11 50 22 17 48 19 407 18 351 0 387 -2 412 -18z m-343
-707 c56 -11 123 -39 171 -72 l26 -17 -1 -161 -1 -161 23 26 c20 24 23 25 29
8 16 -38 6 -226 -15 -306 -11 -43 -23 -81 -26 -84 -3 -4 -16 7 -28 23 -13 16
-37 43 -53 60 -24 24 -29 37 -25 60 3 16 2 52 -1 79 -3 28 -7 45 -7 39 -14
-96 -38 -200 -58 -253 -32 -81 -94 -191 -109 -191 -16 0 -91 148 -119 237 -28
92 -34 119 -36 183 -1 41 -2 43 -11 20 -6 -14 -9 -50 -7 -81 3 -59 -3 -73 -65
-142 -19 -22 -37 -35 -40 -30 -6 9 -33 113 -41 158 -7 33 -8 179 -3 209 5 29
23 30 41 4 15 -22 16 -17 15 82 0 58 0 133 0 167 l1 62 73 36 c100 49 177 62
267 45z m401 -272 c11 -4 13 -44 5 -103 -2 -11 -6 -46 -11 -78 -4 -31 -11 -59
-15 -62 -4 -2 -25 9 -47 25 -32 24 -42 40 -56 89 -17 59 -17 61 6 103 13 24
30 53 38 66 l14 22 27 -29 c15 -16 33 -31 39 -33z m-838 -9 c32 -53 35 -64 25
-87 -6 -15 -13 -38 -15 -52 -3 -23 -75 -100 -93 -100 -11 0 -23 59 -35 174 -6
58 -6 59 32 92 21 19 41 34 44 34 3 0 22 -27 42 -61z"/>
<path d="M2732 1250 c-7 -11 -8 -20 -3 -20 9 0 24 30 18 36 -1 2 -8 -6 -15
-16z"/>
<path d="M3301 1265 c0 -5 6 -19 14 -29 8 -11 15 -15 15 -10 0 6 -7 19 -15 30
-8 10 -14 15 -14 9z"/>
<path d="M2748 1219 c-10 -17 -18 -38 -18 -47 0 -9 9 1 21 22 24 46 21 69 -3
25z"/>
<path d="M2766 1185 c-37 -67 -44 -95 -25 -95 5 0 8 -4 4 -10 -3 -5 -3 -20 1
-34 l6 -24 29 30 c16 17 29 34 30 37 0 3 2 15 4 26 3 19 3 19 -9 3 -23 -32
-25 -19 -6 37 23 68 18 71 -11 8 -12 -27 -23 -43 -25 -37 -3 6 7 36 21 67 13
31 23 57 21 57 -2 0 -20 -29 -40 -65z"/>
<path d="M3250 1245 c0 -16 34 -85 42 -85 5 0 -1 19 -13 43 -24 47 -29 54 -29
42z"/>
<path d="M3280 1248 c0 -16 44 -91 48 -80 2 6 -8 28 -22 49 -14 21 -26 34 -26
31z"/>
<path d="M3101 1164 c0 -11 3 -14 6 -6 3 7 2 16 -1 19 -3 4 -6 -2 -5 -13z"/>
<path d="M2936 1139 c-7 -35 -8 -105 -2 -98 6 6 18 129 13 129 -3 0 -7 -14
-11 -31z"/>
<path d="M3050 1110 c1 -36 1 -76 1 -89 -2 -44 -11 -15 -17 50 -6 76 -14 91
-14 26 0 -59 -19 -62 -22 -4 -1 36 -2 38 -5 10 -2 -18 -9 -33 -15 -33 -7 0 -8
15 -5 43 4 26 3 34 -2 22 -5 -11 -12 -46 -15 -78 -6 -49 -4 -68 15 -115 25
-64 48 -102 59 -102 9 0 68 131 72 162 2 12 7 29 12 37 6 9 5 12 -2 7 -11 -6
-14 7 -26 89 -2 17 -3 -3 -2 -42 1 -40 -2 -73 -6 -73 -4 0 -8 6 -8 13 -2 40
-13 133 -17 137 -2 3 -4 -24 -3 -60z"/>
<path d="M3131 1154 c0 -11 3 -14 6 -6 3 7 2 16 -1 19 -3 4 -6 -2 -5 -13z"/>
<path d="M3250 1159 c0 -6 5 -19 11 -30 6 -11 8 -25 6 -32 -3 -7 -9 -1 -15 13
-10 24 -11 24 -11 2 -1 -21 54 -90 63 -81 3 2 7 30 10 62 5 48 3 57 -10 57
-10 0 -14 -6 -11 -14 4 -10 1 -13 -8 -9 -8 3 -12 9 -9 14 3 5 0 9 -6 9 -6 0
-8 5 -5 10 3 6 1 10 -4 10 -6 0 -11 -5 -11 -11z"/>
<path d="M2911 1144 c0 -11 3 -14 6 -6 3 7 2 16 -1 19 -3 4 -6 -2 -5 -13z"/>
<path d="M3110 1115 c0 -14 4 -25 9 -25 4 0 6 11 3 25 -2 14 -6 25 -8 25 -2 0
-4 -11 -4 -25z"/>
<path d="M3110 1070 c0 -5 5 -10 10 -10 6 0 10 5 10 10 0 6 -4 10 -10 10 -5 0
-10 -4 -10 -10z"/>
<path d="M3450 1430 c14 -11 30 -20 35 -20 6 0 -1 9 -15 20 -14 11 -29 20 -35
20 -5 0 1 -9 15 -20z"/>
<path d="M3425 1408 c22 -13 46 -41 39 -47 -2 -2 -15 4 -30 13 -37 25 -39 14
-3 -18 33 -30 33 -44 0 -26 -25 13 -28 0 -3 -21 22 -18 36 -18 37 1 1 8 5 29
9 47 7 29 4 33 -23 47 -34 18 -56 21 -26 4z"/>
<path d="M2585 1430 c-10 -11 -14 -20 -9 -20 12 1 44 25 44 34 0 12 -17 6 -35
-14z"/>
<path d="M2598 1402 c-16 -10 -28 -20 -28 -24 0 -14 14 -8 45 17 34 28 24 32
-17 7z"/>
<path d="M2613 1369 c-18 -12 -33 -27 -33 -35 0 -20 6 -18 44 21 40 40 36 44
-11 14z"/>
<path d="M2612 1324 c-12 -8 -22 -22 -22 -30 0 -21 18 -17 25 6 4 11 10 18 15
15 4 -3 10 2 14 10 7 19 -4 19 -32 -1z"/>
<path d="M2335 3983 c3 -10 9 -36 12 -58 6 -49 7 -49 32 -36 22 12 20 21 -14
78 -21 35 -42 45 -30 16z"/>
<path d="M3691 3974 c-12 -14 -26 -36 -31 -50 -8 -21 -6 -26 13 -33 27 -10 24
-12 30 24 3 17 8 42 12 58 9 34 5 34 -24 1z"/>
<path d="M2065 3959 c-11 -4 -17 -8 -12 -10 8 -2 8 -2 52 -14 36 -10 100 -48
135 -81 22 -20 27 -21 43 -9 17 12 17 14 2 27 -9 7 -22 18 -29 25 -44 40 -156
76 -191 62z"/>
<path d="M3925 3962 c-3 -3 -12 -7 -19 -8 -28 -4 -82 -36 -121 -70 -22 -19
-34 -33 -27 -29 11 6 17 -7 12 -30 -1 -9 14 3 68 53 19 17 78 47 125 62 21 6
37 14 34 16 -7 7 -66 12 -72 6z"/>
<path d="M1495 3822 c-54 -29 -160 -97 -180 -114 -11 -10 -29 -24 -40 -32 -18
-13 -14 -13 30 0 109 32 132 23 38 -16 -85 -35 -192 -103 -243 -154 -60 -60
-90 -97 -90 -111 0 -24 280 -145 336 -145 11 0 36 11 56 25 37 25 116 60 176
77 18 5 30 13 27 19 -4 5 -11 7 -16 4 -14 -9 -11 8 7 33 9 13 14 26 11 28 -16
17 -161 24 -222 12 -16 -4 -46 -10 -65 -13 -19 -4 -54 -13 -78 -21 -23 -8 -45
-14 -48 -14 -20 0 72 104 116 132 30 18 132 49 175 52 27 3 30 6 28 35 -2 27
3 34 32 48 28 13 32 19 25 37 -17 43 -23 62 -26 83 -6 46 -16 53 -49 35z"/>
<path d="M4519 3833 c-3 -33 -12 -68 -25 -105 -14 -39 -14 -44 1 -53 41 -25
48 -34 49 -61 1 -24 6 -29 26 -30 107 -7 209 -62 277 -150 26 -34 17 -40 -34
-23 -46 16 -63 20 -83 21 -8 0 -19 4 -25 8 -20 13 -178 19 -225 7 -14 -3 -28
-6 -33 -6 -4 -1 -1 -14 8 -31 19 -37 19 -40 -2 -41 -10 0 5 -9 32 -19 60 -21
160 -69 196 -93 24 -16 28 -16 80 2 92 32 195 77 244 105 l46 28 -27 36 c-81
107 -205 196 -354 252 -23 8 -29 14 -19 17 9 2 39 -5 67 -15 30 -12 55 -16 64
-11 10 7 9 9 -5 9 -10 0 -20 7 -23 15 -4 8 -10 15 -15 15 -5 0 -30 16 -56 36
-52 40 -163 98 -164 87z"/>
<path d="M2630 3739 c0 -6 -5 -7 -10 -4 -12 7 -10 -5 15 -105 9 -36 15 -64 20
-95 3 -16 8 -37 10 -45 6 -21 17 -94 30 -190 2 -14 3 -28 4 -32 2 -17 17 -6
18 13 4 47 65 150 80 135 4 -3 4 -6 0 -6 -6 0 32 -116 53 -162 13 -27 36 -29
26 -2 -12 31 14 21 35 -13 13 -21 31 -46 40 -56 17 -18 17 -18 24 3 16 50 173
182 176 148 1 -7 2 -17 4 -23 1 -5 3 -15 3 -21 2 -8 15 -7 45 3 23 8 65 16 94
17 58 2 64 5 69 38 4 33 13 83 20 121 13 67 10 134 -11 217 -3 14 -7 30 -9 37
-5 28 -16 23 -37 -19 -24 -48 -41 -72 -101 -140 -45 -53 -61 -60 -56 -25 3 28
-5 31 -42 12 -17 -9 -49 -18 -73 -21 -40 -5 -41 -4 -22 11 11 9 27 20 34 25
39 22 -131 203 -174 186 -8 -3 -15 -9 -14 -13 6 -39 0 -42 -46 -22 -57 25 -76
30 -147 34 -36 3 -58 0 -58 -6z"/>
<path d="M2088 3734 c-2 -1 -25 -4 -53 -7 -27 -3 -61 -8 -75 -12 -14 -3 -38
-8 -55 -11 -34 -6 -180 -75 -210 -99 -20 -16 -20 -16 3 -5 12 6 22 8 22 5 0
-3 12 1 28 9 15 7 45 17 67 20 22 3 56 9 75 12 32 5 104 8 138 5 19 -1 5 -20
-16 -20 -46 -1 -132 -25 -193 -54 -62 -31 -91 -48 -101 -62 -11 -15 -3 -16 26
-5 15 5 39 12 54 15 15 3 36 7 48 9 11 2 27 0 35 -5 21 -12 -2 -30 -83 -63
-38 -16 -68 -32 -68 -37 0 -5 11 -4 26 1 27 10 76 21 109 24 11 1 25 4 30 6 6
3 35 5 65 5 50 0 56 2 67 27 6 15 33 60 59 100 48 73 57 85 83 114 7 8 10 18
6 22 -6 6 -82 12 -87 6z"/>
<path d="M3873 3721 c6 -9 14 -18 17 -21 23 -22 75 -99 109 -160 l40 -74 53
-2 c80 -4 169 -18 233 -39 11 -3 -20 14 -68 39 -102 51 -106 54 -88 65 17 11
56 5 136 -19 l60 -19 -30 25 c-60 50 -160 93 -260 111 -48 8 -65 22 -30 24 36
1 120 1 120 -1 0 -1 7 -3 15 -5 102 -22 152 -35 174 -46 17 -8 17 -7 -4 11
-34 29 -191 99 -207 92 -2 0 -17 4 -35 9 -44 12 -109 21 -185 23 -56 2 -61 1
-50 -13z"/>
<path d="M4459 3558 c0 -2 -2 -10 -4 -18 -2 -8 -6 -23 -10 -32 -6 -15 -2 -18
19 -16 14 1 26 5 26 8 0 9 173 6 188 -3 6 -5 12 -6 12 -3 0 3 12 1 28 -5 20
-7 24 -7 16 1 -24 24 -150 58 -202 55 -29 -2 -52 1 -52 6 0 8 -19 14 -21 7z"/>
<path d="M1320 3490 c-9 -6 -10 -10 -3 -10 6 0 15 5 18 10 8 12 4 12 -15 0z"/>
<path d="M1910 3369 c0 -5 5 -7 10 -4 6 3 10 8 10 11 0 2 -4 4 -10 4 -5 0 -10
-5 -10 -11z"/>
<path d="M4150 3371 c0 -4 24 -17 53 -29 29 -12 76 -38 106 -57 29 -19 56 -35
60 -35 20 0 170 -145 191 -185 18 -34 10 -38 -35 -19 -22 9 -47 18 -57 20 -10
2 -28 6 -40 9 -46 10 -84 16 -128 20 l-45 4 65 -32 c144 -72 294 -188 388
-302 28 -33 31 -35 18 -10 -50 94 -118 169 -208 230 -32 21 -58 42 -58 46 0
10 62 -11 119 -41 24 -12 45 -19 48 -16 7 7 -64 132 -96 170 -51 59 -99 101
-152 133 -60 36 -229 105 -229 94z"/>
<path d="M1813 3346 c-34 -12 -92 -41 -130 -65 -68 -44 -177 -148 -194 -186
-6 -11 -21 -38 -34 -60 -33 -54 -33 -68 3 -49 15 7 32 14 39 14 6 0 28 9 47
21 53 31 68 17 16 -16 -67 -42 -193 -175 -228 -242 -17 -32 -24 -47 -14 -34
22 30 179 191 187 191 3 0 16 9 28 21 26 25 200 129 216 129 6 0 11 4 11 9 0
5 8 12 18 14 18 5 -70 -1 -103 -8 -66 -12 -149 -35 -158 -44 -5 -5 -15 -7 -23
-4 -11 4 -10 10 4 31 23 37 164 172 179 172 7 0 13 3 13 8 1 9 59 44 145 86
79 39 70 44 -22 12z"/>
<path d="M1846 3295 c-59 -30 -116 -61 -125 -69 -10 -9 -21 -16 -25 -16 -8 0
-12 -4 -75 -61 -44 -40 -44 -41 -15 -36 16 3 36 8 44 11 31 11 98 18 177 20
81 1 83 1 88 28 10 42 9 43 -53 40 -88 -5 -44 21 53 31 13 1 24 17 37 52 10
28 18 51 18 53 0 7 -25 -4 -124 -53z"/>
<path d="M4096 3322 c10 -44 28 -75 44 -78 49 -8 84 -16 92 -20 13 -8 9 -24
-5 -18 -32 12 -97 11 -97 -2 0 -7 4 -15 9 -19 6 -3 8 -13 6 -23 -3 -16 6 -18
78 -18 45 0 100 -4 122 -8 22 -4 54 -10 70 -13 17 -3 35 -9 41 -14 25 -20 21
6 -4 28 -15 13 -34 29 -42 37 -23 20 -108 76 -115 76 -4 0 -19 8 -33 19 -15
10 -60 32 -100 49 l-72 31 6 -27z"/>
<path d="M4370 3344 c0 -2 9 -8 20 -14 11 -6 20 -7 20 -2 0 6 -9 12 -20 15
-11 3 -20 3 -20 1z"/>
<path d="M2746 3278 c-32 -108 -34 -129 -22 -313 4 -60 7 -145 6 -187 -1 -49
3 -78 9 -78 6 0 11 5 11 12 0 6 11 26 25 43 13 18 21 36 17 40 -4 3 0 5 8 3
22 -5 46 -29 64 -65 20 -40 28 -42 25 -5 -2 28 15 97 30 121 7 11 11 10 20 -5
10 -18 10 -18 11 4 0 35 0 35 23 72 44 72 54 74 102 23 36 -39 37 -40 37 -85
1 -29 13 -37 21 -15 11 26 46 -58 47 -113 1 -28 -4 -32 46 38 23 30 34 27 67
-15 l27 -36 1 54 c3 146 10 253 24 399 8 75 8 71 6 87 -2 21 -110 10 -162 -15
-57 -28 -59 -28 -59 4 0 22 -3 24 -22 18 -25 -7 -91 -71 -109 -106 -10 -18 -8
-24 12 -39 13 -10 18 -19 11 -19 -16 0 -72 28 -94 48 -18 16 -23 9 -19 -25 1
-7 -5 -13 -14 -13 -8 0 -15 7 -15 15 0 8 -4 15 -9 15 -12 0 -77 128 -86 168
-3 17 -10 32 -14 32 -3 0 -15 -28 -25 -62z"/>
<path d="M1555 3228 c-3 -8 -12 -15 -19 -15 -15 0 -200 -118 -236 -150 -14
-13 -28 -23 -32 -23 -4 0 -18 -11 -32 -25 -14 -14 -28 -25 -31 -25 -7 0 -19
-11 -124 -109 l-64 -61 18 -22 c42 -51 100 -100 149 -128 l52 -30 44 90 c44
89 65 120 117 173 16 16 21 25 12 22 -35 -13 -30 20 16 112 32 64 64 111 98
144 28 27 47 52 44 55 -4 4 -9 0 -12 -8z"/>
<path d="M4515 3199 c21 -24 47 -52 57 -63 15 -17 90 -152 88 -158 -1 -2 2
-12 6 -22 5 -13 2 -23 -7 -29 -13 -8 -8 -17 23 -51 21 -22 60 -84 86 -136 26
-52 48 -97 49 -99 4 -6 113 62 113 71 0 4 5 8 10 8 6 0 31 21 56 47 l46 47
-74 70 c-41 39 -91 85 -113 101 -72 56 -100 80 -103 88 -2 4 -7 7 -12 7 -5 0
-44 24 -87 53 -89 59 -106 70 -148 93 -29 16 -28 15 10 -27z"/>
<path d="M1870 3106 c0 -2 9 -6 20 -9 11 -3 18 -1 14 4 -5 9 -34 13 -34 5z"/>
<path d="M4155 3100 c-3 -6 1 -7 9 -4 18 7 21 14 7 14 -6 0 -13 -4 -16 -10z"/>
<path d="M1794 3055 c-18 -14 -18 -14 4 -8 12 3 22 9 22 14 0 12 -3 11 -26 -6z"/>
<path d="M1830 3060 c0 -5 4 -10 9 -10 6 0 13 5 16 10 3 6 -1 10 -9 10 -9 0
-16 -4 -16 -10z"/>
<path d="M4195 3060 c3 -5 8 -10 11 -10 2 0 4 5 4 10 0 6 -5 10 -11 10 -5 0
-7 -4 -4 -10z"/>
<path d="M4220 3059 c0 -7 3 -10 6 -7 3 4 19 2 37 -3 18 -5 27 -5 21 0 -17 17
-64 24 -64 10z"/>
<path d="M1865 3010 c-16 -4 -40 -12 -52 -19 -13 -6 -23 -9 -23 -6 0 12 -175
-115 -192 -139 -17 -23 -17 -26 -2 -41 22 -22 13 -27 -24 -14 -28 9 -35 7 -69
-18 -47 -35 -55 -42 -76 -73 -20 -29 -21 -36 -4 -38 92 -14 146 -15 202 -7 22
4 47 7 55 7 8 0 20 4 25 8 6 4 24 11 40 14 27 6 37 1 80 -39 27 -25 58 -45 67
-45 10 0 27 -9 38 -20 10 -10 22 -15 25 -11 7 12 -5 42 -14 36 -11 -6 -79 32
-112 63 -16 15 -40 50 -53 77 -14 28 -25 44 -25 38 -1 -7 -5 -13 -10 -13 -9 0
-27 57 -23 73 2 5 -2 6 -6 3 -5 -3 -8 -21 -5 -41 2 -25 0 -35 -10 -35 -10 0
-13 8 -9 28 3 21 2 24 -8 16 -6 -7 -13 -24 -13 -38 -1 -14 -3 -26 -4 -26 -2 0
-15 18 -30 41 l-27 41 38 34 c52 48 80 65 111 68 29 4 34 -2 37 -38 3 -39 18
-31 18 9 0 41 20 48 21 8 2 -84 24 -100 26 -21 3 70 22 106 24 43 1 -56 8 -93
24 -129 l14 -31 -6 35 c-3 19 -7 72 -7 117 -1 45 -4 84 -6 86 -3 2 -18 1 -35
-3z"/>
<path d="M4157 3012 c-3 -4 -5 -38 -5 -77 -1 -38 -8 -93 -15 -122 -8 -29 -10
-50 -6 -48 11 7 39 96 34 106 -3 4 -1 10 4 13 5 4 8 22 5 41 -2 19 0 35 5 35
14 0 18 -20 17 -87 -1 -33 2 -59 7 -56 4 2 7 15 7 28 0 13 4 26 9 30 5 3 8 21
6 40 -2 19 1 37 5 40 11 7 17 -14 15 -52 -1 -31 13 -48 17 -20 0 6 2 17 3 22
2 6 3 18 4 29 1 15 4 16 15 7 8 -6 18 -11 22 -9 12 3 74 -34 74 -44 0 -4 6 -8
14 -8 8 0 23 -12 34 -27 20 -27 20 -27 -2 -60 -26 -41 -33 -41 -41 -2 -8 34
-13 34 -18 -2 -7 -41 -22 -21 -18 24 3 38 -6 49 -13 15 -14 -67 -35 -95 -29
-35 l4 32 -14 -35 c-23 -60 -54 -109 -78 -128 -38 -29 -99 -62 -114 -62 -8 0
-11 -7 -8 -21 3 -11 9 -17 12 -12 3 5 33 24 66 43 33 19 70 45 82 59 21 24 24
25 59 12 20 -7 48 -15 62 -18 42 -8 235 -9 255 -1 21 9 19 12 -57 89 -53 52
-61 55 -101 37 -34 -15 -42 -5 -15 22 l21 21 -33 27 c-18 15 -35 29 -38 32
-41 44 -243 141 -253 122z"/>
<path d="M4314 2997 c167 -106 147 -90 255 -198 82 -82 121 -127 121 -139 0
-31 -150 -51 -279 -36 -51 6 -48 -2 6 -15 124 -31 207 -31 297 2 l36 13 -31
54 c-34 60 -39 67 -88 120 -19 20 -38 36 -43 35 -4 -2 -8 1 -8 7 0 15 -33 50
-46 50 -7 0 -14 4 -16 8 -6 15 -104 69 -163 90 -33 11 -52 15 -41 9z"/>
<path d="M1648 2966 c-70 -34 -168 -103 -203 -142 -80 -87 -140 -178 -131
-199 2 -7 19 -16 38 -20 18 -4 40 -9 48 -12 41 -11 155 -5 230 12 8 2 18 4 23
4 4 1 7 6 7 11 0 6 -12 8 -27 5 -62 -13 -208 -3 -245 17 -10 5 -18 14 -18 21
0 17 41 67 111 136 90 88 128 118 229 179 55 34 12 25 -62 -12z"/>
<path d="M3020 2936 c-38 -29 -48 -71 -50 -203 0 -47 -15 -41 -30 13 -8 29
-16 41 -20 32 -8 -15 -5 -111 4 -148 4 -14 9 -36 12 -50 3 -13 7 -26 9 -28 3
-4 131 -6 161 -3 24 2 57 134 48 192 -3 19 -6 39 -6 46 -1 7 -5 10 -10 7 -5
-3 -7 -11 -5 -17 5 -15 -18 -79 -27 -75 -8 3 -18 104 -17 159 1 14 -11 39 -27
56 -22 25 -30 29 -42 19z"/>
<path d="M1740 2815 c0 -8 4 -15 10 -15 5 0 7 7 4 15 -4 8 -8 15 -10 15 -2 0
-4 -7 -4 -15z"/>
<path d="M968 2762 c-63 -70 -183 -250 -173 -260 14 -14 179 -20 245 -8 85 15
104 21 197 62 50 22 53 29 16 39 -15 3 -47 20 -71 36 -23 16 -46 29 -51 29 -4
0 -37 29 -73 64 l-66 64 -24 -26z"/>
<path d="M5039 2763 c-42 -47 -122 -107 -191 -144 -43 -22 -78 -42 -78 -43 0
-6 152 -65 180 -72 107 -22 285 -23 307 0 5 5 -80 149 -102 172 -5 6 -27 32
-49 58 -21 25 -41 46 -45 46 -4 0 -14 -8 -22 -17z"/>
<path d="M2781 2714 c-12 -25 -24 -61 -27 -81 -3 -19 -7 -44 -9 -54 -6 -32 17
-37 139 -30 13 1 16 6 11 19 -6 16 -10 28 -19 70 -7 31 -49 111 -61 116 -7 2
-22 -16 -34 -40z"/>
<path d="M3226 2714 c-15 -24 -29 -50 -30 -56 -2 -7 -8 -33 -15 -57 -7 -23
-10 -45 -8 -48 4 -4 103 -7 136 -4 28 2 -6 160 -43 196 -10 10 -18 4 -40 -31z"/>
<path d="M1723 2525 c-35 -25 -79 -59 -99 -77 -91 -82 -116 -108 -104 -108 15
0 195 95 216 113 25 22 40 34 67 52 36 23 28 31 -12 11 -37 -20 -41 -20 -41
-2 0 7 10 20 23 29 12 8 20 17 17 20 -3 3 -33 -14 -67 -38z"/>
<path d="M4278 2547 c35 -37 28 -50 -15 -32 -33 13 -35 13 -19 0 11 -8 31 -25
46 -38 49 -44 240 -149 240 -132 0 11 -108 110 -181 166 -81 62 -108 75 -71
36z"/>
<path d="M1295 2532 c-27 -15 -79 -37 -115 -49 -55 -19 -60 -22 -32 -23 17 0
32 -4 32 -10 0 -5 -3 -10 -7 -11 -107 -9 -236 -11 -285 -4 -23 3 -38 1 -38 -6
0 -5 4 -8 9 -5 5 4 11 2 13 -2 6 -16 170 -68 243 -77 133 -17 121 -20 179 38
66 65 99 91 158 125 27 15 48 29 48 32 0 3 -17 6 -37 6 -21 0 -56 3 -78 7 -32
4 -50 0 -90 -21z"/>
<path d="M1642 2511 c-76 -50 -130 -91 -167 -126 -26 -25 -95 -115 -95 -125 0
-7 57 -6 110 3 57 9 133 41 196 82 37 25 69 43 71 41 2 -2 -3 -21 -11 -41 -19
-44 -19 -45 -7 -45 5 0 12 8 15 18 3 9 19 33 36 52 16 19 30 41 30 48 0 7 4
11 8 8 4 -2 25 11 47 30 41 35 39 44 -5 19 -34 -20 -51 -19 -43 3 4 12 -3 9
-24 -10 -16 -16 -34 -28 -41 -28 -7 0 -12 -4 -12 -8 0 -12 -116 -83 -186 -115
-65 -29 -121 -40 -130 -26 -8 14 129 144 240 226 78 57 59 54 -32 -6z"/>
<path d="M4656 2553 c-3 -3 -24 -6 -48 -8 -24 -1 -47 -3 -53 -4 -5 -1 14 -15
44 -32 67 -39 69 -40 147 -117 63 -62 64 -62 111 -57 60 7 102 13 131 20 12 3
32 7 43 10 59 13 189 69 189 81 0 3 -5 2 -12 -2 -20 -13 -158 -17 -263 -9 -22
2 -48 4 -58 4 -28 2 -9 21 20 21 29 0 27 8 -3 14 -27 6 -157 57 -171 69 -14
10 -69 17 -77 10z"/>
<path d="M4340 2547 c0 -3 19 -17 42 -32 64 -43 238 -206 238 -224 0 -7 -10
-7 -70 2 -45 7 -232 117 -299 176 -30 26 -30 26 -23 -1 5 -20 3 -21 -10 -11
-8 7 -32 19 -54 28 l-39 15 30 -22 c57 -44 135 -130 147 -164 6 -19 16 -34 20
-34 5 0 3 10 -3 23 -7 12 -12 23 -11 25 2 1 -1 14 -4 28 -8 31 -1 39 17 22 20
-20 108 -72 149 -88 34 -14 40 -16 90 -26 45 -10 110 -12 115 -5 11 18 -116
149 -205 212 -63 45 -130 84 -130 76z"/>
<path d="M1890 2423 c-67 -54 -144 -153 -120 -153 14 0 12 -31 -4 -61 -10 -20
-10 -26 0 -26 7 0 18 21 25 46 19 72 53 132 100 179 49 48 49 55 -1 15z"/>
<path d="M2245 2438 c-8 -5 -15 -7 -15 -4 0 3 -31 -6 -69 -19 -74 -25 -192
-98 -190 -118 0 -9 2 -9 6 1 2 6 9 12 14 12 6 0 19 8 29 18 11 10 41 29 67 41
27 12 56 27 66 32 11 6 21 8 24 5 3 -2 21 1 41 8 22 7 81 12 142 12 99 -1 105
-2 102 -21 -2 -18 0 -17 17 5 15 18 17 27 7 32 -17 10 -222 6 -241 -4z"/>
<path d="M3576 2443 c-8 -8 16 -53 26 -47 4 3 6 10 3 15 -4 5 -3 9 2 10 4 0
17 2 27 4 21 4 98 8 106 5 3 -1 23 -3 45 -5 113 -10 189 -41 290 -119 24 -18
34 -23 25 -11 -26 35 -37 44 -79 66 -22 11 -41 25 -41 30 0 5 -3 8 -7 7 -5 -1
-35 7 -68 17 -33 10 -67 21 -75 23 -22 7 -248 11 -254 5z"/>
<path d="M4140 2437 c0 -2 16 -22 36 -43 38 -43 94 -150 94 -182 0 -22 13 -36
24 -25 3 3 2 11 -3 17 -14 18 -19 65 -7 70 7 3 6 5 -2 5 -7 1 -11 5 -8 9 9 14
-49 91 -92 123 -23 17 -42 29 -42 26z"/>
<path d="M1630 2278 c-41 -21 -84 -40 -95 -41 -11 -2 -27 -7 -35 -10 -8 -3
-23 -6 -32 -6 -69 -2 -86 -1 -107 3 -32 7 -34 11 -21 35 18 34 1 24 -45 -26
-24 -26 -41 -52 -38 -58 4 -5 3 -7 -1 -3 -8 7 -46 -21 -46 -35 0 -7 40 -4 110
8 56 10 193 23 297 29 40 2 76 7 81 10 5 3 8 31 7 63 -1 32 3 61 9 65 27 19
-15 2 -84 -34z"/>
<path d="M4347 2292 c3 -15 5 -46 5 -69 1 -32 5 -43 17 -44 9 -1 43 -3 76 -5
190 -11 372 -35 399 -51 5 -4 -1 9 -14 28 -29 41 -135 146 -120 119 5 -10 10
-23 10 -29 0 -10 -75 -28 -95 -22 -5 1 -23 4 -40 6 -62 8 -90 17 -166 55 l-77
39 5 -27z"/>
<path d="M2582 2209 c-24 -16 -45 -29 -47 -29 -3 0 -64 -37 -137 -81 -73 -45
-225 -137 -338 -205 -113 -68 -211 -127 -218 -132 -12 -8 -11 -14 1 -38 8 -16
23 -39 34 -51 10 -12 34 -40 53 -63 19 -23 48 -51 65 -62 30 -21 30 -21 -5 17
-19 21 -43 46 -52 56 -21 22 -58 93 -58 112 0 7 19 24 43 37 23 13 71 42 107
65 36 23 162 101 280 175 212 131 284 176 307 193 8 5 18 1 30 -12 9 -12 23
-21 29 -21 7 0 14 -3 16 -7 2 -5 16 -19 32 -33 27 -23 28 -23 17 -3 -6 12 -14
23 -18 25 -5 1 -23 21 -42 43 -19 21 -39 40 -46 41 -6 1 -30 -11 -53 -27z"/>
<path d="M3405 2212 c-16 -15 -46 -47 -65 -72 l-34 -45 49 44 c28 24 59 48 70
53 24 11 36 4 301 -162 65 -41 127 -79 136 -85 10 -5 89 -55 177 -110 l159
-99 -14 -28 c-27 -52 -65 -103 -105 -141 -23 -21 -39 -41 -36 -43 9 -9 115
104 155 166 23 35 41 65 39 66 -1 1 -45 27 -97 58 -52 31 -102 61 -110 66 -8
5 -107 65 -220 133 -113 68 -231 140 -262 160 -31 21 -61 37 -66 37 -5 0 -15
7 -22 15 -17 20 -20 19 -55 -13z"/>
<path d="M2575 2105 c-33 -27 -30 -30 11 -15 22 9 36 6 78 -16 28 -14 47 -22
41 -17 -18 17 -93 73 -96 73 -2 -1 -17 -12 -34 -25z"/>
<path d="M3385 2085 l-40 -36 52 26 c43 21 57 23 80 14 25 -9 26 -8 13 5 -31
31 -63 28 -105 -9z"/>
<path d="M1659 2056 c-2 -2 -31 -7 -64 -10 -107 -10 -217 -26 -285 -41 -14 -3
-38 -8 -55 -11 -16 -3 -34 -7 -40 -8 -5 -2 -39 -9 -74 -16 l-64 -13 -34 -75
c-42 -90 -46 -107 -27 -123 17 -14 132 -6 164 11 11 6 24 9 29 6 5 -3 18 21
30 54 25 69 36 77 27 20 -3 -22 -4 -40 -1 -40 15 0 158 87 222 136 54 41 110
72 173 96 27 10 37 17 24 17 -11 1 -23 -1 -25 -3z"/>
<path d="M1705 2039 c-4 -10 -11 -19 -16 -19 -19 0 -236 -228 -306 -322 -86
-115 -97 -135 -47 -83 21 22 38 43 36 48 -1 4 1 6 6 5 6 -3 84 55 120 90 7 6
18 12 23 12 15 0 0 -21 -38 -54 -18 -15 -30 -33 -26 -40 3 -6 3 -8 -1 -4 -19
16 -232 -227 -280 -319 -18 -35 -16 -37 44 -35 98 2 307 104 410 199 19 18 58
45 85 59 63 34 60 31 46 48 -11 13 -22 9 -78 -25 -36 -22 -67 -38 -70 -35 -7
7 23 36 36 36 6 0 11 3 11 8 0 4 17 18 39 31 l38 24 -23 69 c-29 84 -29 95 -6
102 28 9 41 43 47 125 3 41 7 79 8 85 1 5 -10 11 -25 12 -19 2 -29 -3 -33 -17z"/>
<path d="M4295 1997 c13 -127 14 -131 44 -157 24 -20 28 -29 20 -42 -5 -10 -8
-18 -5 -18 3 0 -4 -25 -15 -57 -19 -50 -20 -58 -6 -67 94 -67 127 -92 127 -99
0 -5 -15 0 -32 10 -137 81 -126 76 -137 54 -9 -16 -7 -21 12 -27 12 -4 40 -18
62 -33 22 -14 43 -24 48 -23 4 1 6 -2 5 -7 -4 -13 101 -93 112 -86 4 3 10 -1
13 -8 12 -31 245 -126 297 -121 8 1 23 2 32 3 44 3 -53 140 -229 321 -68 70
-123 131 -123 134 0 15 84 -51 172 -135 32 -30 58 -53 58 -51 0 3 -32 48 -72
101 -69 91 -179 214 -242 270 -17 14 -47 42 -67 61 -20 19 -46 36 -58 37 -21
3 -22 0 -16 -60z"/>
<path d="M4370 2051 c0 -6 7 -11 15 -11 20 0 155 -67 169 -84 12 -14 122 -86
198 -129 l47 -27 -10 32 c-11 41 -11 48 1 48 5 0 14 -17 20 -37 14 -52 20 -58
61 -72 79 -25 135 -29 168 -12 19 11 20 14 7 44 -50 116 -69 157 -73 153 -3
-3 -16 -1 -29 4 -14 6 -37 12 -52 15 -15 3 -36 8 -47 10 -39 9 -75 16 -97 19
-13 2 -41 7 -63 11 -22 4 -53 9 -70 11 -16 2 -43 6 -60 9 -16 3 -57 8 -90 11
-33 2 -68 7 -77 10 -10 3 -18 1 -18 -5z"/>
<path d="M1589 1973 c-13 -16 -12 -17 4 -4 9 7 17 15 17 17 0 8 -8 3 -21 -13z"/>
<path d="M2476 1754 c-23 -22 5 -73 30 -56 17 11 22 35 12 55 -11 21 -22 22
-42 1z"/>
<path d="M3541 1756 c-15 -18 -5 -56 13 -56 23 0 41 30 30 48 -15 22 -29 25
-43 8z"/>
<path d="M3606 1701 c-4 -5 20 -36 51 -69 32 -32 78 -83 103 -112 25 -30 55
-64 68 -76 12 -12 22 -25 22 -30 0 -5 8 -17 18 -25 19 -18 33 -35 77 -94 43
-58 43 -57 75 -95 16 -19 30 -41 30 -47 0 -7 3 -13 8 -13 4 0 20 -21 37 -48
16 -26 32 -49 36 -52 12 -9 163 -252 231 -370 58 -102 227 -433 239 -469 4
-12 9 -11 32 0 l27 14 -53 115 c-60 131 -177 344 -272 495 -36 57 -68 110 -71
119 -3 9 -13 16 -22 16 -8 0 -12 3 -9 6 5 6 -77 136 -108 170 -5 6 -17 22 -25
34 -8 12 -22 30 -30 40 -8 10 -26 33 -40 50 -14 17 -32 40 -40 50 -8 9 -33 39
-55 66 -71 85 -184 204 -306 320 -11 9 -19 12 -23 5z"/>
<path d="M2375 1647 c-27 -29 -49 -55 -47 -59 1 -5 -2 -8 -8 -8 -11 0 -96 -85
-167 -166 -26 -31 -57 -67 -69 -80 -11 -13 -29 -35 -40 -50 -10 -15 -26 -34
-35 -43 -8 -9 -39 -50 -69 -91 -29 -41 -56 -77 -59 -80 -11 -9 -143 -213 -215
-330 -80 -132 -267 -495 -263 -513 2 -13 36 -42 41 -36 2 2 40 78 84 169 45
91 116 226 158 300 74 131 300 480 343 529 12 13 21 27 21 30 0 3 13 20 28 38
15 17 36 43 46 58 11 14 28 36 38 48 10 12 30 37 45 56 49 59 153 177 196 222
16 16 25 29 21 29 -4 0 1 7 12 15 14 11 15 14 4 14 -8 0 -37 -24 -65 -52z"/>
<path d="M1734 1513 c-72 -70 -142 -162 -106 -139 10 6 39 -11 31 -18 -3 -3
-19 -6 -37 -8 -18 -1 -32 -2 -32 -3 0 0 -13 -32 -29 -71 -34 -82 -58 -205 -44
-226 4 -8 8 -6 56 37 16 14 54 38 85 54 46 24 64 40 92 87 38 63 53 82 123
155 l48 50 -54 52 c-30 29 -58 61 -63 70 -9 15 -18 10 -70 -40z"/>
<path d="M4205 1504 c-33 -34 -60 -67 -60 -72 0 -5 22 -34 50 -63 55 -60 135
-176 135 -196 0 -7 7 -13 17 -13 27 0 113 -53 158 -97 12 -13 26 -23 30 -23 7
0 1 93 -8 135 -12 50 -48 140 -63 156 -10 11 -27 19 -40 19 -13 0 -26 5 -29
10 -3 6 3 10 14 10 24 0 27 15 9 35 -24 27 -43 49 -69 81 -14 18 -39 43 -55
57 l-29 24 -60 -63z"/>
<path d="M1924 1401 c-22 -18 -57 -67 -60 -85 -1 -6 -5 -24 -9 -41 -8 -30 -7
-30 11 -10 57 61 104 119 104 130 0 21 -24 24 -46 6z"/>
<path d="M4090 1405 c-10 -13 -3 -26 45 -80 32 -36 59 -64 62 -61 12 12 -22
93 -53 123 -40 38 -38 38 -54 18z"/>
</g>
</svg>
